<svg version="1.1" id="Layer_1" xmlns="http://www.w3.org/2000/svg" xmlns:xlink="http://www.w3.org/1999/xlink" x="0px" y="0px"
	 width="100%" viewBox="0 0 360 147" enable-background="new 0 0 360 147" xml:space="preserve">
<path fill="#000000" opacity="1.000000" stroke="none" 
	d="
M231.000000,148.000000 
	C154.000000,148.000000 77.500000,148.000000 1.000000,148.000000 
	C1.000000,99.000000 1.000000,50.000000 1.000000,1.000000 
	C121.000000,1.000000 241.000000,1.000000 361.000000,1.000000 
	C361.000000,50.000000 361.000000,99.000000 361.000000,148.000000 
	C317.833344,148.000000 274.666656,148.000000 231.000000,148.000000 
M92.963066,64.501175 
	C92.963142,74.661064 93.254875,84.832176 92.864471,94.977036 
	C92.587479,102.174889 95.847771,107.128494 101.506508,110.535255 
	C114.168854,118.158424 127.026283,125.459106 139.844498,132.821060 
	C145.011185,135.788467 150.305389,135.770309 155.477478,132.783936 
	C168.246002,125.411354 181.039444,118.079117 193.709671,110.540421 
	C199.420822,107.142349 202.036865,101.824608 202.007065,95.136147 
	C201.946915,81.645439 201.896332,68.153519 202.015564,54.663628 
	C202.085495,46.750122 198.784286,41.042091 191.932846,37.122204 
	C179.875320,30.223787 167.907150,23.169361 155.893295,16.194479 
	C149.761139,12.634328 143.801254,13.129154 137.783554,16.700144 
	C126.207825,23.569347 114.522270,30.253185 102.914116,37.068176 
	C96.663628,40.737751 92.192329,45.484493 92.913925,53.513271 
	C93.210915,56.817680 92.963081,60.171059 92.963066,64.501175 
M247.730392,91.779633 
	C251.515671,98.178192 257.425171,97.929649 264.148346,97.062843 
	C257.949036,91.269981 252.140717,85.842491 245.473770,79.612663 
	C248.081116,79.612663 249.240952,79.641083 250.399033,79.608017 
	C257.549347,79.403839 259.858887,77.033127 259.898712,69.844963 
	C259.919006,66.181221 259.995819,62.514614 259.886780,58.854080 
	C259.727814,53.517864 257.147156,51.030411 251.875534,50.994049 
	C247.212631,50.961884 242.549362,50.986729 237.886246,50.986649 
	C230.640213,50.986526 223.394196,50.986614 216.560211,50.986614 
	C216.560211,66.942123 216.560211,82.225700 216.560211,98.062744 
	C219.443832,97.725517 221.817993,97.447868 224.477829,97.136810 
	C224.477829,91.081871 224.477829,85.498337 224.477829,79.984016 
	C231.911514,78.600319 238.225571,79.226822 242.494614,86.162521 
	C243.689301,88.103447 245.636902,89.580940 247.730392,91.779633 
M306.999023,81.497910 
	C306.999023,86.938545 306.999023,92.379181 306.999023,98.115265 
	C310.048523,97.717445 312.434998,97.406113 315.040405,97.066231 
	C315.040405,90.751175 315.040405,84.980873 315.040405,78.678841 
	C321.380341,78.678841 327.428192,78.678841 333.695984,78.678841 
	C333.695984,76.215065 333.695984,74.297096 333.695984,72.099236 
	C327.475525,72.099236 321.387848,72.099236 315.141113,72.099236 
	C315.141113,67.274101 315.141113,62.729225 315.141113,57.737553 
	C326.135712,57.737553 336.869812,57.737553 347.668823,57.737553 
	C347.668823,55.240818 347.668823,53.200813 347.668823,51.288574 
	C333.955017,51.288574 320.562347,51.288574 306.999023,51.288574 
	C306.999023,61.227249 306.999023,70.862869 306.999023,81.497910 
M278.034485,91.375832 
	C278.034485,93.483261 278.034485,95.590691 278.034485,98.079819 
	C281.116852,97.720856 283.522797,97.440666 286.285858,97.118889 
	C286.285858,81.617142 286.285858,66.519516 286.285858,51.245735 
	C283.749939,51.245735 281.016998,51.245735 278.034485,51.245735 
	C278.034485,64.466286 278.034485,77.434456 278.034485,91.375832 
z"/>
<path fill="#EBEBEB" opacity="1.000000" stroke="none" 
	d="
M92.963066,64.001671 
	C92.963081,60.171059 93.210915,56.817680 92.913925,53.513271 
	C92.192329,45.484493 96.663628,40.737751 102.914116,37.068176 
	C114.522270,30.253185 126.207825,23.569347 137.783554,16.700144 
	C143.801254,13.129154 149.761139,12.634328 155.893295,16.194479 
	C167.907150,23.169361 179.875320,30.223787 191.932846,37.122204 
	C198.784286,41.042091 202.085495,46.750122 202.015564,54.663628 
	C201.896332,68.153519 201.946915,81.645439 202.007065,95.136147 
	C202.036865,101.824608 199.420822,107.142349 193.709671,110.540421 
	C181.039444,118.079117 168.246002,125.411354 155.477478,132.783936 
	C150.305389,135.770309 145.011185,135.788467 139.844498,132.821060 
	C127.026283,125.459106 114.168854,118.158424 101.506508,110.535255 
	C95.847771,107.128494 92.587479,102.174889 92.864471,94.977036 
	C93.254875,84.832176 92.963142,74.661064 92.963066,64.001671 
M119.545845,31.976816 
	C114.270592,35.091618 109.023949,38.256245 103.711617,41.306469 
	C98.901443,44.068367 96.878380,48.153484 96.926781,53.664215 
	C97.048225,67.489861 97.082779,81.318878 96.903687,95.143333 
	C96.826195,101.125229 99.212830,105.204071 104.381630,108.123161 
	C115.637665,114.480019 126.908157,120.830750 137.911819,127.607635 
	C144.428940,131.621368 150.388412,131.546112 156.807709,127.696060 
	C168.045364,120.956108 179.343719,114.310326 190.754044,107.868423 
	C195.971130,104.923019 198.062668,100.683754 198.027191,94.904305 
	C197.943390,81.244827 197.822998,67.581406 198.069321,53.925930 
	C198.181702,47.695999 195.702820,43.553520 190.392624,40.546368 
	C178.833054,34.000195 167.322281,27.362226 155.916367,20.552744 
	C150.334503,17.220303 145.091110,17.132772 139.547379,20.510817 
	C133.189468,24.384981 126.687790,28.023193 119.545845,31.976816 
z"/>
<path fill="#F6F6F6" opacity="1.000000" stroke="none" 
	d="
M247.484772,91.525330 
	C245.636902,89.580940 243.689301,88.103447 242.494614,86.162521 
	C238.225571,79.226822 231.911514,78.600319 224.477829,79.984016 
	C224.477829,85.498337 224.477829,91.081871 224.477829,97.136810 
	C221.817993,97.447868 219.443832,97.725517 216.560211,98.062744 
	C216.560211,82.225700 216.560211,66.942123 216.560211,50.986614 
	C223.394196,50.986614 230.640213,50.986526 237.886246,50.986649 
	C242.549362,50.986729 247.212631,50.961884 251.875534,50.994049 
	C257.147156,51.030411 259.727814,53.517864 259.886780,58.854080 
	C259.995819,62.514614 259.919006,66.181221 259.898712,69.844963 
	C259.858887,77.033127 257.549347,79.403839 250.399033,79.608017 
	C249.240952,79.641083 248.081116,79.612663 245.473770,79.612663 
	C252.140717,85.842491 257.949036,91.269981 264.148346,97.062843 
	C257.425171,97.929649 251.515671,98.178192 247.484772,91.525330 
M236.503311,72.992538 
	C238.165924,72.992500 239.828705,72.976418 241.491104,72.994965 
	C254.679916,73.142136 251.582687,72.986565 251.984131,61.367947 
	C252.024597,60.196278 249.807388,57.943657 248.569427,57.893826 
	C240.639404,57.574642 232.690262,57.730995 224.514847,57.730995 
	C224.514847,62.842735 224.514847,67.743813 224.514847,72.992897 
	C228.288284,72.992897 231.901672,72.992897 236.503311,72.992538 
z"/>
<path fill="#F6F6F6" opacity="1.000000" stroke="none" 
	d="
M306.999023,80.998199 
	C306.999023,70.862869 306.999023,61.227249 306.999023,51.288574 
	C320.562347,51.288574 333.955017,51.288574 347.668823,51.288574 
	C347.668823,53.200813 347.668823,55.240818 347.668823,57.737553 
	C336.869812,57.737553 326.135712,57.737553 315.141113,57.737553 
	C315.141113,62.729225 315.141113,67.274101 315.141113,72.099236 
	C321.387848,72.099236 327.475525,72.099236 333.695984,72.099236 
	C333.695984,74.297096 333.695984,76.215065 333.695984,78.678841 
	C327.428192,78.678841 321.380341,78.678841 315.040405,78.678841 
	C315.040405,84.980873 315.040405,90.751175 315.040405,97.066231 
	C312.434998,97.406113 310.048523,97.717445 306.999023,98.115265 
	C306.999023,92.379181 306.999023,86.938545 306.999023,80.998199 
z"/>
<path fill="#FAFAFA" opacity="1.000000" stroke="none" 
	d="
M278.034485,90.889229 
	C278.034485,77.434456 278.034485,64.466286 278.034485,51.245735 
	C281.016998,51.245735 283.749939,51.245735 286.285858,51.245735 
	C286.285858,66.519516 286.285858,81.617142 286.285858,97.118889 
	C283.522797,97.440666 281.116852,97.720856 278.034485,98.079819 
	C278.034485,95.590691 278.034485,93.483261 278.034485,90.889229 
z"/>
<path fill="#040406" opacity="1.000000" stroke="none" 
	d="
M119.897202,31.870365 
	C126.687790,28.023193 133.189468,24.384981 139.547379,20.510817 
	C145.091110,17.132772 150.334503,17.220303 155.916367,20.552744 
	C167.322281,27.362226 178.833054,34.000195 190.392624,40.546368 
	C195.702820,43.553520 198.181702,47.695999 198.069321,53.925930 
	C197.822998,67.581406 197.943390,81.244827 198.027191,94.904305 
	C198.062668,100.683754 195.971130,104.923019 190.754044,107.868423 
	C179.343719,114.310326 168.045364,120.956108 156.807709,127.696060 
	C150.388412,131.546112 144.428940,131.621368 137.911819,127.607635 
	C126.908157,120.830750 115.637665,114.480019 104.381630,108.123161 
	C99.212830,105.204071 96.826195,101.125229 96.903687,95.143333 
	C97.082779,81.318878 97.048225,67.489861 96.926781,53.664215 
	C96.878380,48.153484 98.901443,44.068367 103.711617,41.306469 
	C109.023949,38.256245 114.270592,35.091618 119.897202,31.870365 
M175.600861,61.042088 
	C169.292633,48.830318 159.400894,42.618793 145.523819,43.054108 
	C133.394928,43.434586 121.655632,52.771191 117.711075,65.196968 
	C113.821724,77.448837 118.046341,91.330414 127.908844,98.705574 
	C140.269119,107.948563 154.801270,108.043037 166.666138,98.957550 
	C177.914688,90.344009 181.520966,75.845863 175.600861,61.042088 
M148.433716,121.291855 
	C162.137634,120.071571 174.092361,115.328400 183.100174,104.284439 
	C181.930984,102.675507 181.139389,100.854874 179.751343,99.916206 
	C178.711761,99.213158 176.186890,98.981812 175.546463,99.673286 
	C166.754517,109.165810 155.996841,112.448593 143.255600,111.474854 
	C126.133278,110.166283 110.838509,95.875122 110.220474,78.685066 
	C109.977394,71.923927 111.591759,64.944588 113.327309,58.317875 
	C114.452591,54.021313 111.223824,53.244781 109.367935,51.374577 
	C109.081429,51.085865 105.887505,52.554024 105.403137,53.758575 
	C97.681473,72.961121 99.630585,91.122337 114.087234,106.766808 
	C123.095299,116.514992 134.722580,120.227905 148.433716,121.291855 
M165.297958,41.054443 
	C182.855301,51.779842 189.221832,69.136063 182.633209,88.313232 
	C180.640305,94.113892 181.054153,95.030846 186.942963,97.862541 
	C199.837555,79.377861 195.609543,51.042175 172.888199,35.300865 
	C153.071655,21.572002 125.472870,26.689581 112.259575,44.937263 
	C114.007156,46.875729 115.743568,48.801804 117.484886,50.733326 
	C133.251495,34.043541 151.503616,34.144161 165.297958,41.054443 
z"/>
<path fill="#030303" opacity="1.000000" stroke="none" 
	d="
M236.009186,72.992722 
	C231.901672,72.992897 228.288284,72.992897 224.514847,72.992897 
	C224.514847,67.743813 224.514847,62.842735 224.514847,57.730995 
	C232.690262,57.730995 240.639404,57.574642 248.569427,57.893826 
	C249.807388,57.943657 252.024597,60.196278 251.984131,61.367947 
	C251.582687,72.986565 254.679916,73.142136 241.491104,72.994965 
	C239.828705,72.976418 238.165924,72.992500 236.009186,72.992722 
z"/>
<path fill="#F4F4F4" opacity="1.000000" stroke="none" 
	d="
M175.763306,61.386906 
	C181.520966,75.845863 177.914688,90.344009 166.666138,98.957550 
	C154.801270,108.043037 140.269119,107.948563 127.908844,98.705574 
	C118.046341,91.330414 113.821724,77.448837 117.711075,65.196968 
	C121.655632,52.771191 133.394928,43.434586 145.523819,43.054108 
	C159.400894,42.618793 169.292633,48.830318 175.763306,61.386906 
M164.421814,58.133678 
	C157.707413,51.873306 149.963287,49.514061 140.965027,51.976421 
	C128.646622,55.347336 121.178719,68.617546 125.109787,81.130524 
	C129.478271,95.035843 141.288513,99.717529 153.421417,96.639267 
	C172.851166,91.709717 174.414688,69.211891 164.421814,58.133678 
z"/>
<path fill="#3E72DE" opacity="1.000000" stroke="none" 
	d="
M147.968475,121.292023 
	C134.722580,120.227905 123.095299,116.514992 114.087234,106.766808 
	C99.630585,91.122337 97.681473,72.961121 105.403137,53.758575 
	C105.887505,52.554024 109.081429,51.085865 109.367935,51.374577 
	C111.223824,53.244781 114.452591,54.021313 113.327309,58.317875 
	C111.591759,64.944588 109.977394,71.923927 110.220474,78.685066 
	C110.838509,95.875122 126.133278,110.166283 143.255600,111.474854 
	C155.996841,112.448593 166.754517,109.165810 175.546463,99.673286 
	C176.186890,98.981812 178.711761,99.213158 179.751343,99.916206 
	C181.139389,100.854874 181.930984,102.675507 183.100174,104.284439 
	C174.092361,115.328400 162.137634,120.071571 147.968475,121.292023 
z"/>
<path fill="#3E72DE" opacity="1.000000" stroke="none" 
	d="
M164.957703,40.893013 
	C151.503616,34.144161 133.251495,34.043541 117.484886,50.733326 
	C115.743568,48.801804 114.007156,46.875729 112.259575,44.937263 
	C125.472870,26.689581 153.071655,21.572002 172.888199,35.300865 
	C195.609543,51.042175 199.837555,79.377861 186.942963,97.862541 
	C181.054153,95.030846 180.640305,94.113892 182.633209,88.313232 
	C189.221832,69.136063 182.855301,51.779842 164.957703,40.893013 
z"/>
<path fill="#020202" opacity="1.000000" stroke="none" 
	d="
M164.653473,58.415768 
	C174.414688,69.211891 172.851166,91.709717 153.421417,96.639267 
	C141.288513,99.717529 129.478271,95.035843 125.109787,81.130524 
	C121.178719,68.617546 128.646622,55.347336 140.965027,51.976421 
	C149.963287,49.514061 157.707413,51.873306 164.653473,58.415768 
z"/>
</svg>